<mxfile host="Electron" modified="2024-06-29T12:05:15.898Z" agent="Mozilla/5.0 (Windows NT 10.0; Win64; x64) AppleWebKit/537.36 (KHTML, like Gecko) draw.io/24.2.5 Chrome/120.0.6099.109 Electron/28.1.0 Safari/537.36" etag="ADsUOXVpgXVAdz61JY2z" version="24.2.5" type="device">
  <diagram name="Page-1" id="gwMGrYQ4EuIz-oDvFGuI">
    <mxGraphModel dx="2074" dy="1205" grid="1" gridSize="10" guides="1" tooltips="1" connect="1" arrows="1" fold="1" page="1" pageScale="1" pageWidth="827" pageHeight="1169" math="0" shadow="0">
      <root>
        <mxCell id="0" />
        <mxCell id="1" parent="0" />
        <mxCell id="Lh1Qyqo2xCNsD7hke7yH-86" value="" style="rounded=0;whiteSpace=wrap;html=1;fillColor=#fff2cc;strokeColor=#d6b656;" vertex="1" parent="1">
          <mxGeometry x="130" y="430" width="650" height="460" as="geometry" />
        </mxCell>
        <mxCell id="Lh1Qyqo2xCNsD7hke7yH-1" value="" style="shape=table;startSize=0;container=1;collapsible=0;childLayout=tableLayout;fontSize=16;" vertex="1" parent="1">
          <mxGeometry x="160" y="510" width="330" height="30" as="geometry" />
        </mxCell>
        <mxCell id="Lh1Qyqo2xCNsD7hke7yH-2" value="" style="shape=tableRow;horizontal=0;startSize=0;swimlaneHead=0;swimlaneBody=0;strokeColor=inherit;top=0;left=0;bottom=0;right=0;collapsible=0;dropTarget=0;fillColor=none;points=[[0,0.5],[1,0.5]];portConstraint=eastwest;fontSize=16;" vertex="1" parent="Lh1Qyqo2xCNsD7hke7yH-1">
          <mxGeometry width="330" height="30" as="geometry" />
        </mxCell>
        <mxCell id="Lh1Qyqo2xCNsD7hke7yH-3" value="" style="shape=partialRectangle;html=1;whiteSpace=wrap;connectable=0;strokeColor=#b85450;overflow=hidden;fillColor=#f8cecc;top=0;left=0;bottom=0;right=0;pointerEvents=1;fontSize=16;" vertex="1" parent="Lh1Qyqo2xCNsD7hke7yH-2">
          <mxGeometry width="41" height="30" as="geometry">
            <mxRectangle width="41" height="30" as="alternateBounds" />
          </mxGeometry>
        </mxCell>
        <mxCell id="Lh1Qyqo2xCNsD7hke7yH-4" value="" style="shape=partialRectangle;html=1;whiteSpace=wrap;connectable=0;strokeColor=#b85450;overflow=hidden;fillColor=#f8cecc;top=0;left=0;bottom=0;right=0;pointerEvents=1;fontSize=16;" vertex="1" parent="Lh1Qyqo2xCNsD7hke7yH-2">
          <mxGeometry x="41" width="42" height="30" as="geometry">
            <mxRectangle width="42" height="30" as="alternateBounds" />
          </mxGeometry>
        </mxCell>
        <mxCell id="Lh1Qyqo2xCNsD7hke7yH-14" style="shape=partialRectangle;html=1;whiteSpace=wrap;connectable=0;strokeColor=#b85450;overflow=hidden;fillColor=#f8cecc;top=0;left=0;bottom=0;right=0;pointerEvents=1;fontSize=16;" vertex="1" parent="Lh1Qyqo2xCNsD7hke7yH-2">
          <mxGeometry x="83" width="37" height="30" as="geometry">
            <mxRectangle width="37" height="30" as="alternateBounds" />
          </mxGeometry>
        </mxCell>
        <mxCell id="Lh1Qyqo2xCNsD7hke7yH-15" style="shape=partialRectangle;html=1;whiteSpace=wrap;connectable=0;strokeColor=#b85450;overflow=hidden;fillColor=#f8cecc;top=0;left=0;bottom=0;right=0;pointerEvents=1;fontSize=16;" vertex="1" parent="Lh1Qyqo2xCNsD7hke7yH-2">
          <mxGeometry x="120" width="45" height="30" as="geometry">
            <mxRectangle width="45" height="30" as="alternateBounds" />
          </mxGeometry>
        </mxCell>
        <mxCell id="Lh1Qyqo2xCNsD7hke7yH-16" style="shape=partialRectangle;html=1;whiteSpace=wrap;connectable=0;strokeColor=#82b366;overflow=hidden;fillColor=#d5e8d4;top=0;left=0;bottom=0;right=0;pointerEvents=1;fontSize=16;" vertex="1" parent="Lh1Qyqo2xCNsD7hke7yH-2">
          <mxGeometry x="165" width="41" height="30" as="geometry">
            <mxRectangle width="41" height="30" as="alternateBounds" />
          </mxGeometry>
        </mxCell>
        <mxCell id="Lh1Qyqo2xCNsD7hke7yH-17" style="shape=partialRectangle;html=1;whiteSpace=wrap;connectable=0;strokeColor=#82b366;overflow=hidden;fillColor=#d5e8d4;top=0;left=0;bottom=0;right=0;pointerEvents=1;fontSize=16;" vertex="1" parent="Lh1Qyqo2xCNsD7hke7yH-2">
          <mxGeometry x="206" width="42" height="30" as="geometry">
            <mxRectangle width="42" height="30" as="alternateBounds" />
          </mxGeometry>
        </mxCell>
        <mxCell id="Lh1Qyqo2xCNsD7hke7yH-18" style="shape=partialRectangle;html=1;whiteSpace=wrap;connectable=0;strokeColor=#82b366;overflow=hidden;fillColor=#d5e8d4;top=0;left=0;bottom=0;right=0;pointerEvents=1;fontSize=16;" vertex="1" parent="Lh1Qyqo2xCNsD7hke7yH-2">
          <mxGeometry x="248" width="41" height="30" as="geometry">
            <mxRectangle width="41" height="30" as="alternateBounds" />
          </mxGeometry>
        </mxCell>
        <mxCell id="Lh1Qyqo2xCNsD7hke7yH-19" style="shape=partialRectangle;html=1;whiteSpace=wrap;connectable=0;strokeColor=#82b366;overflow=hidden;fillColor=#d5e8d4;top=0;left=0;bottom=0;right=0;pointerEvents=1;fontSize=16;" vertex="1" parent="Lh1Qyqo2xCNsD7hke7yH-2">
          <mxGeometry x="289" width="41" height="30" as="geometry">
            <mxRectangle width="41" height="30" as="alternateBounds" />
          </mxGeometry>
        </mxCell>
        <mxCell id="Lh1Qyqo2xCNsD7hke7yH-30" value="" style="shape=table;startSize=0;container=1;collapsible=0;childLayout=tableLayout;fontSize=16;" vertex="1" parent="1">
          <mxGeometry x="160" y="680" width="330" height="30" as="geometry" />
        </mxCell>
        <mxCell id="Lh1Qyqo2xCNsD7hke7yH-31" value="" style="shape=tableRow;horizontal=0;startSize=0;swimlaneHead=0;swimlaneBody=0;strokeColor=inherit;top=0;left=0;bottom=0;right=0;collapsible=0;dropTarget=0;fillColor=none;points=[[0,0.5],[1,0.5]];portConstraint=eastwest;fontSize=16;" vertex="1" parent="Lh1Qyqo2xCNsD7hke7yH-30">
          <mxGeometry width="330" height="30" as="geometry" />
        </mxCell>
        <mxCell id="Lh1Qyqo2xCNsD7hke7yH-32" value="" style="shape=partialRectangle;html=1;whiteSpace=wrap;connectable=0;strokeColor=#b85450;overflow=hidden;fillColor=#f8cecc;top=0;left=0;bottom=0;right=0;pointerEvents=1;fontSize=16;" vertex="1" parent="Lh1Qyqo2xCNsD7hke7yH-31">
          <mxGeometry width="41" height="30" as="geometry">
            <mxRectangle width="41" height="30" as="alternateBounds" />
          </mxGeometry>
        </mxCell>
        <mxCell id="Lh1Qyqo2xCNsD7hke7yH-33" value="" style="shape=partialRectangle;html=1;whiteSpace=wrap;connectable=0;strokeColor=#b85450;overflow=hidden;fillColor=#f8cecc;top=0;left=0;bottom=0;right=0;pointerEvents=1;fontSize=16;" vertex="1" parent="Lh1Qyqo2xCNsD7hke7yH-31">
          <mxGeometry x="41" width="42" height="30" as="geometry">
            <mxRectangle width="42" height="30" as="alternateBounds" />
          </mxGeometry>
        </mxCell>
        <mxCell id="Lh1Qyqo2xCNsD7hke7yH-34" style="shape=partialRectangle;html=1;whiteSpace=wrap;connectable=0;strokeColor=inherit;overflow=hidden;fillColor=none;top=0;left=0;bottom=0;right=0;pointerEvents=1;fontSize=16;" vertex="1" parent="Lh1Qyqo2xCNsD7hke7yH-31">
          <mxGeometry x="83" width="41" height="30" as="geometry">
            <mxRectangle width="41" height="30" as="alternateBounds" />
          </mxGeometry>
        </mxCell>
        <mxCell id="Lh1Qyqo2xCNsD7hke7yH-35" style="shape=partialRectangle;html=1;whiteSpace=wrap;connectable=0;strokeColor=inherit;overflow=hidden;fillColor=none;top=0;left=0;bottom=0;right=0;pointerEvents=1;fontSize=16;" vertex="1" parent="Lh1Qyqo2xCNsD7hke7yH-31">
          <mxGeometry x="124" width="41" height="30" as="geometry">
            <mxRectangle width="41" height="30" as="alternateBounds" />
          </mxGeometry>
        </mxCell>
        <mxCell id="Lh1Qyqo2xCNsD7hke7yH-36" style="shape=partialRectangle;html=1;whiteSpace=wrap;connectable=0;strokeColor=inherit;overflow=hidden;fillColor=none;top=0;left=0;bottom=0;right=0;pointerEvents=1;fontSize=16;" vertex="1" parent="Lh1Qyqo2xCNsD7hke7yH-31">
          <mxGeometry x="165" width="41" height="30" as="geometry">
            <mxRectangle width="41" height="30" as="alternateBounds" />
          </mxGeometry>
        </mxCell>
        <mxCell id="Lh1Qyqo2xCNsD7hke7yH-37" style="shape=partialRectangle;html=1;whiteSpace=wrap;connectable=0;strokeColor=inherit;overflow=hidden;fillColor=none;top=0;left=0;bottom=0;right=0;pointerEvents=1;fontSize=16;" vertex="1" parent="Lh1Qyqo2xCNsD7hke7yH-31">
          <mxGeometry x="206" width="42" height="30" as="geometry">
            <mxRectangle width="42" height="30" as="alternateBounds" />
          </mxGeometry>
        </mxCell>
        <mxCell id="Lh1Qyqo2xCNsD7hke7yH-38" style="shape=partialRectangle;html=1;whiteSpace=wrap;connectable=0;strokeColor=inherit;overflow=hidden;fillColor=none;top=0;left=0;bottom=0;right=0;pointerEvents=1;fontSize=16;" vertex="1" parent="Lh1Qyqo2xCNsD7hke7yH-31">
          <mxGeometry x="248" width="41" height="30" as="geometry">
            <mxRectangle width="41" height="30" as="alternateBounds" />
          </mxGeometry>
        </mxCell>
        <mxCell id="Lh1Qyqo2xCNsD7hke7yH-39" style="shape=partialRectangle;html=1;whiteSpace=wrap;connectable=0;strokeColor=inherit;overflow=hidden;fillColor=none;top=0;left=0;bottom=0;right=0;pointerEvents=1;fontSize=16;" vertex="1" parent="Lh1Qyqo2xCNsD7hke7yH-31">
          <mxGeometry x="289" width="41" height="30" as="geometry">
            <mxRectangle width="41" height="30" as="alternateBounds" />
          </mxGeometry>
        </mxCell>
        <mxCell id="Lh1Qyqo2xCNsD7hke7yH-40" value="" style="shape=table;startSize=0;container=1;collapsible=0;childLayout=tableLayout;fontSize=16;" vertex="1" parent="1">
          <mxGeometry x="160" y="760" width="330" height="30" as="geometry" />
        </mxCell>
        <mxCell id="Lh1Qyqo2xCNsD7hke7yH-41" value="" style="shape=tableRow;horizontal=0;startSize=0;swimlaneHead=0;swimlaneBody=0;strokeColor=inherit;top=0;left=0;bottom=0;right=0;collapsible=0;dropTarget=0;fillColor=none;points=[[0,0.5],[1,0.5]];portConstraint=eastwest;fontSize=16;" vertex="1" parent="Lh1Qyqo2xCNsD7hke7yH-40">
          <mxGeometry width="330" height="30" as="geometry" />
        </mxCell>
        <mxCell id="Lh1Qyqo2xCNsD7hke7yH-42" value="" style="shape=partialRectangle;html=1;whiteSpace=wrap;connectable=0;strokeColor=#b85450;overflow=hidden;fillColor=#f8cecc;top=0;left=0;bottom=0;right=0;pointerEvents=1;fontSize=16;" vertex="1" parent="Lh1Qyqo2xCNsD7hke7yH-41">
          <mxGeometry width="41" height="30" as="geometry">
            <mxRectangle width="41" height="30" as="alternateBounds" />
          </mxGeometry>
        </mxCell>
        <mxCell id="Lh1Qyqo2xCNsD7hke7yH-43" value="" style="shape=partialRectangle;html=1;whiteSpace=wrap;connectable=0;strokeColor=inherit;overflow=hidden;fillColor=none;top=0;left=0;bottom=0;right=0;pointerEvents=1;fontSize=16;" vertex="1" parent="Lh1Qyqo2xCNsD7hke7yH-41">
          <mxGeometry x="41" width="42" height="30" as="geometry">
            <mxRectangle width="42" height="30" as="alternateBounds" />
          </mxGeometry>
        </mxCell>
        <mxCell id="Lh1Qyqo2xCNsD7hke7yH-44" style="shape=partialRectangle;html=1;whiteSpace=wrap;connectable=0;strokeColor=inherit;overflow=hidden;fillColor=none;top=0;left=0;bottom=0;right=0;pointerEvents=1;fontSize=16;" vertex="1" parent="Lh1Qyqo2xCNsD7hke7yH-41">
          <mxGeometry x="83" width="41" height="30" as="geometry">
            <mxRectangle width="41" height="30" as="alternateBounds" />
          </mxGeometry>
        </mxCell>
        <mxCell id="Lh1Qyqo2xCNsD7hke7yH-45" style="shape=partialRectangle;html=1;whiteSpace=wrap;connectable=0;strokeColor=inherit;overflow=hidden;fillColor=none;top=0;left=0;bottom=0;right=0;pointerEvents=1;fontSize=16;" vertex="1" parent="Lh1Qyqo2xCNsD7hke7yH-41">
          <mxGeometry x="124" width="41" height="30" as="geometry">
            <mxRectangle width="41" height="30" as="alternateBounds" />
          </mxGeometry>
        </mxCell>
        <mxCell id="Lh1Qyqo2xCNsD7hke7yH-46" style="shape=partialRectangle;html=1;whiteSpace=wrap;connectable=0;strokeColor=inherit;overflow=hidden;fillColor=none;top=0;left=0;bottom=0;right=0;pointerEvents=1;fontSize=16;" vertex="1" parent="Lh1Qyqo2xCNsD7hke7yH-41">
          <mxGeometry x="165" width="41" height="30" as="geometry">
            <mxRectangle width="41" height="30" as="alternateBounds" />
          </mxGeometry>
        </mxCell>
        <mxCell id="Lh1Qyqo2xCNsD7hke7yH-47" style="shape=partialRectangle;html=1;whiteSpace=wrap;connectable=0;strokeColor=inherit;overflow=hidden;fillColor=none;top=0;left=0;bottom=0;right=0;pointerEvents=1;fontSize=16;" vertex="1" parent="Lh1Qyqo2xCNsD7hke7yH-41">
          <mxGeometry x="206" width="42" height="30" as="geometry">
            <mxRectangle width="42" height="30" as="alternateBounds" />
          </mxGeometry>
        </mxCell>
        <mxCell id="Lh1Qyqo2xCNsD7hke7yH-48" style="shape=partialRectangle;html=1;whiteSpace=wrap;connectable=0;strokeColor=inherit;overflow=hidden;fillColor=none;top=0;left=0;bottom=0;right=0;pointerEvents=1;fontSize=16;" vertex="1" parent="Lh1Qyqo2xCNsD7hke7yH-41">
          <mxGeometry x="248" width="41" height="30" as="geometry">
            <mxRectangle width="41" height="30" as="alternateBounds" />
          </mxGeometry>
        </mxCell>
        <mxCell id="Lh1Qyqo2xCNsD7hke7yH-49" style="shape=partialRectangle;html=1;whiteSpace=wrap;connectable=0;strokeColor=inherit;overflow=hidden;fillColor=none;top=0;left=0;bottom=0;right=0;pointerEvents=1;fontSize=16;" vertex="1" parent="Lh1Qyqo2xCNsD7hke7yH-41">
          <mxGeometry x="289" width="41" height="30" as="geometry">
            <mxRectangle width="41" height="30" as="alternateBounds" />
          </mxGeometry>
        </mxCell>
        <mxCell id="Lh1Qyqo2xCNsD7hke7yH-50" value="" style="shape=table;startSize=0;container=1;collapsible=0;childLayout=tableLayout;fontSize=16;" vertex="1" parent="1">
          <mxGeometry x="160" y="840" width="41" height="30" as="geometry" />
        </mxCell>
        <mxCell id="Lh1Qyqo2xCNsD7hke7yH-51" value="" style="shape=tableRow;horizontal=0;startSize=0;swimlaneHead=0;swimlaneBody=0;strokeColor=inherit;top=0;left=0;bottom=0;right=0;collapsible=0;dropTarget=0;fillColor=none;points=[[0,0.5],[1,0.5]];portConstraint=eastwest;fontSize=16;" vertex="1" parent="Lh1Qyqo2xCNsD7hke7yH-50">
          <mxGeometry width="41" height="30" as="geometry" />
        </mxCell>
        <mxCell id="Lh1Qyqo2xCNsD7hke7yH-52" value="" style="shape=partialRectangle;html=1;whiteSpace=wrap;connectable=0;strokeColor=#9673a6;overflow=hidden;fillColor=#e1d5e7;top=0;left=0;bottom=0;right=0;pointerEvents=1;fontSize=16;" vertex="1" parent="Lh1Qyqo2xCNsD7hke7yH-51">
          <mxGeometry width="41" height="30" as="geometry">
            <mxRectangle width="41" height="30" as="alternateBounds" />
          </mxGeometry>
        </mxCell>
        <mxCell id="Lh1Qyqo2xCNsD7hke7yH-60" value="" style="shape=curlyBracket;whiteSpace=wrap;html=1;rounded=1;flipH=1;labelPosition=right;verticalLabelPosition=middle;align=left;verticalAlign=middle;direction=south;" vertex="1" parent="1">
          <mxGeometry x="160" y="480" width="330" height="20" as="geometry" />
        </mxCell>
        <mxCell id="Lh1Qyqo2xCNsD7hke7yH-61" value="WarpSize = 32" style="text;html=1;align=center;verticalAlign=middle;whiteSpace=wrap;rounded=0;fontStyle=1" vertex="1" parent="1">
          <mxGeometry x="257.5" y="440" width="135" height="30" as="geometry" />
        </mxCell>
        <mxCell id="Lh1Qyqo2xCNsD7hke7yH-62" value="texel_datum = datav - data_mean" style="text;html=1;align=left;verticalAlign=middle;whiteSpace=wrap;rounded=0;fontSize=15;fontStyle=1" vertex="1" parent="1">
          <mxGeometry x="530" y="600" width="240" height="30" as="geometry" />
        </mxCell>
        <mxCell id="Lh1Qyqo2xCNsD7hke7yH-64" value="" style="shape=table;startSize=0;container=1;collapsible=0;childLayout=tableLayout;fontSize=16;" vertex="1" parent="1">
          <mxGeometry x="160" y="600" width="330" height="30" as="geometry" />
        </mxCell>
        <mxCell id="Lh1Qyqo2xCNsD7hke7yH-65" value="" style="shape=tableRow;horizontal=0;startSize=0;swimlaneHead=0;swimlaneBody=0;strokeColor=inherit;top=0;left=0;bottom=0;right=0;collapsible=0;dropTarget=0;fillColor=none;points=[[0,0.5],[1,0.5]];portConstraint=eastwest;fontSize=16;" vertex="1" parent="Lh1Qyqo2xCNsD7hke7yH-64">
          <mxGeometry width="330" height="30" as="geometry" />
        </mxCell>
        <mxCell id="Lh1Qyqo2xCNsD7hke7yH-66" value="" style="shape=partialRectangle;html=1;whiteSpace=wrap;connectable=0;strokeColor=#b85450;overflow=hidden;fillColor=#f8cecc;top=0;left=0;bottom=0;right=0;pointerEvents=1;fontSize=16;" vertex="1" parent="Lh1Qyqo2xCNsD7hke7yH-65">
          <mxGeometry width="41" height="30" as="geometry">
            <mxRectangle width="41" height="30" as="alternateBounds" />
          </mxGeometry>
        </mxCell>
        <mxCell id="Lh1Qyqo2xCNsD7hke7yH-67" value="" style="shape=partialRectangle;html=1;whiteSpace=wrap;connectable=0;strokeColor=#b85450;overflow=hidden;fillColor=#f8cecc;top=0;left=0;bottom=0;right=0;pointerEvents=1;fontSize=16;" vertex="1" parent="Lh1Qyqo2xCNsD7hke7yH-65">
          <mxGeometry x="41" width="42" height="30" as="geometry">
            <mxRectangle width="42" height="30" as="alternateBounds" />
          </mxGeometry>
        </mxCell>
        <mxCell id="Lh1Qyqo2xCNsD7hke7yH-68" style="shape=partialRectangle;html=1;whiteSpace=wrap;connectable=0;strokeColor=#b85450;overflow=hidden;fillColor=#f8cecc;top=0;left=0;bottom=0;right=0;pointerEvents=1;fontSize=16;" vertex="1" parent="Lh1Qyqo2xCNsD7hke7yH-65">
          <mxGeometry x="83" width="41" height="30" as="geometry">
            <mxRectangle width="41" height="30" as="alternateBounds" />
          </mxGeometry>
        </mxCell>
        <mxCell id="Lh1Qyqo2xCNsD7hke7yH-69" style="shape=partialRectangle;html=1;whiteSpace=wrap;connectable=0;strokeColor=#b85450;overflow=hidden;fillColor=#f8cecc;top=0;left=0;bottom=0;right=0;pointerEvents=1;fontSize=16;" vertex="1" parent="Lh1Qyqo2xCNsD7hke7yH-65">
          <mxGeometry x="124" width="41" height="30" as="geometry">
            <mxRectangle width="41" height="30" as="alternateBounds" />
          </mxGeometry>
        </mxCell>
        <mxCell id="Lh1Qyqo2xCNsD7hke7yH-70" style="shape=partialRectangle;html=1;whiteSpace=wrap;connectable=0;strokeColor=inherit;overflow=hidden;fillColor=none;top=0;left=0;bottom=0;right=0;pointerEvents=1;fontSize=16;" vertex="1" parent="Lh1Qyqo2xCNsD7hke7yH-65">
          <mxGeometry x="165" width="41" height="30" as="geometry">
            <mxRectangle width="41" height="30" as="alternateBounds" />
          </mxGeometry>
        </mxCell>
        <mxCell id="Lh1Qyqo2xCNsD7hke7yH-71" style="shape=partialRectangle;html=1;whiteSpace=wrap;connectable=0;strokeColor=inherit;overflow=hidden;fillColor=none;top=0;left=0;bottom=0;right=0;pointerEvents=1;fontSize=16;" vertex="1" parent="Lh1Qyqo2xCNsD7hke7yH-65">
          <mxGeometry x="206" width="42" height="30" as="geometry">
            <mxRectangle width="42" height="30" as="alternateBounds" />
          </mxGeometry>
        </mxCell>
        <mxCell id="Lh1Qyqo2xCNsD7hke7yH-72" style="shape=partialRectangle;html=1;whiteSpace=wrap;connectable=0;strokeColor=inherit;overflow=hidden;fillColor=none;top=0;left=0;bottom=0;right=0;pointerEvents=1;fontSize=16;" vertex="1" parent="Lh1Qyqo2xCNsD7hke7yH-65">
          <mxGeometry x="248" width="41" height="30" as="geometry">
            <mxRectangle width="41" height="30" as="alternateBounds" />
          </mxGeometry>
        </mxCell>
        <mxCell id="Lh1Qyqo2xCNsD7hke7yH-73" style="shape=partialRectangle;html=1;whiteSpace=wrap;connectable=0;strokeColor=inherit;overflow=hidden;fillColor=none;top=0;left=0;bottom=0;right=0;pointerEvents=1;fontSize=16;" vertex="1" parent="Lh1Qyqo2xCNsD7hke7yH-65">
          <mxGeometry x="289" width="41" height="30" as="geometry">
            <mxRectangle width="41" height="30" as="alternateBounds" />
          </mxGeometry>
        </mxCell>
        <mxCell id="Lh1Qyqo2xCNsD7hke7yH-74" value="" style="shape=curlyBracket;whiteSpace=wrap;html=1;rounded=1;flipH=1;labelPosition=right;verticalLabelPosition=middle;align=left;verticalAlign=middle;direction=north;" vertex="1" parent="1">
          <mxGeometry x="160" y="540" width="160" height="20" as="geometry" />
        </mxCell>
        <mxCell id="Lh1Qyqo2xCNsD7hke7yH-75" value="16 Thread = ASTC 4x4" style="text;html=1;align=center;verticalAlign=middle;whiteSpace=wrap;rounded=0;fontStyle=1" vertex="1" parent="1">
          <mxGeometry x="156.88" y="570" width="166.25" height="30" as="geometry" />
        </mxCell>
        <mxCell id="Lh1Qyqo2xCNsD7hke7yH-76" value="warp reduce" style="text;html=1;align=left;verticalAlign=middle;whiteSpace=wrap;rounded=0;fontSize=15;fontStyle=1" vertex="1" parent="1">
          <mxGeometry x="530" y="680" width="240" height="30" as="geometry" />
        </mxCell>
        <mxCell id="Lh1Qyqo2xCNsD7hke7yH-77" value="" style="endArrow=classic;html=1;rounded=0;exitX=0.063;exitY=1.067;exitDx=0;exitDy=0;exitPerimeter=0;entryX=0.063;entryY=-0.067;entryDx=0;entryDy=0;entryPerimeter=0;" edge="1" parent="1" source="Lh1Qyqo2xCNsD7hke7yH-64" target="Lh1Qyqo2xCNsD7hke7yH-31">
          <mxGeometry width="50" height="50" relative="1" as="geometry">
            <mxPoint x="290" y="650" as="sourcePoint" />
            <mxPoint x="340" y="600" as="targetPoint" />
          </mxGeometry>
        </mxCell>
        <mxCell id="Lh1Qyqo2xCNsD7hke7yH-78" value="" style="endArrow=classic;html=1;rounded=0;entryX=0.063;entryY=-0.089;entryDx=0;entryDy=0;entryPerimeter=0;exitX=0.311;exitY=1.111;exitDx=0;exitDy=0;exitPerimeter=0;" edge="1" parent="1" source="Lh1Qyqo2xCNsD7hke7yH-65" target="Lh1Qyqo2xCNsD7hke7yH-31">
          <mxGeometry width="50" height="50" relative="1" as="geometry">
            <mxPoint x="260" y="640" as="sourcePoint" />
            <mxPoint x="191" y="688" as="targetPoint" />
          </mxGeometry>
        </mxCell>
        <mxCell id="Lh1Qyqo2xCNsD7hke7yH-79" value="" style="endArrow=classic;html=1;rounded=0;exitX=0.063;exitY=1.067;exitDx=0;exitDy=0;exitPerimeter=0;entryX=0.063;entryY=-0.067;entryDx=0;entryDy=0;entryPerimeter=0;" edge="1" parent="1">
          <mxGeometry width="50" height="50" relative="1" as="geometry">
            <mxPoint x="220" y="634" as="sourcePoint" />
            <mxPoint x="220" y="680" as="targetPoint" />
          </mxGeometry>
        </mxCell>
        <mxCell id="Lh1Qyqo2xCNsD7hke7yH-80" value="" style="endArrow=classic;html=1;rounded=0;entryX=0.063;entryY=-0.089;entryDx=0;entryDy=0;entryPerimeter=0;" edge="1" parent="1">
          <mxGeometry width="50" height="50" relative="1" as="geometry">
            <mxPoint x="300" y="640" as="sourcePoint" />
            <mxPoint x="230" y="677" as="targetPoint" />
          </mxGeometry>
        </mxCell>
        <mxCell id="Lh1Qyqo2xCNsD7hke7yH-81" value="warp reduce" style="text;html=1;align=left;verticalAlign=middle;whiteSpace=wrap;rounded=0;fontSize=15;fontStyle=1" vertex="1" parent="1">
          <mxGeometry x="530" y="750" width="240" height="30" as="geometry" />
        </mxCell>
        <mxCell id="Lh1Qyqo2xCNsD7hke7yH-82" value="" style="endArrow=classic;html=1;rounded=0;exitX=0.063;exitY=1.067;exitDx=0;exitDy=0;exitPerimeter=0;entryX=0.063;entryY=-0.067;entryDx=0;entryDy=0;entryPerimeter=0;" edge="1" parent="1">
          <mxGeometry width="50" height="50" relative="1" as="geometry">
            <mxPoint x="180" y="710" as="sourcePoint" />
            <mxPoint x="180" y="756" as="targetPoint" />
          </mxGeometry>
        </mxCell>
        <mxCell id="Lh1Qyqo2xCNsD7hke7yH-83" value="" style="endArrow=classic;html=1;rounded=0;exitX=0.19;exitY=1.044;exitDx=0;exitDy=0;exitPerimeter=0;" edge="1" parent="1" source="Lh1Qyqo2xCNsD7hke7yH-30">
          <mxGeometry width="50" height="50" relative="1" as="geometry">
            <mxPoint x="273" y="643" as="sourcePoint" />
            <mxPoint x="180" y="750" as="targetPoint" />
          </mxGeometry>
        </mxCell>
        <mxCell id="Lh1Qyqo2xCNsD7hke7yH-84" value="" style="endArrow=classic;html=1;rounded=0;exitX=0.063;exitY=1.067;exitDx=0;exitDy=0;exitPerimeter=0;entryX=0.063;entryY=-0.067;entryDx=0;entryDy=0;entryPerimeter=0;" edge="1" parent="1">
          <mxGeometry width="50" height="50" relative="1" as="geometry">
            <mxPoint x="180" y="790" as="sourcePoint" />
            <mxPoint x="180" y="836" as="targetPoint" />
          </mxGeometry>
        </mxCell>
        <mxCell id="Lh1Qyqo2xCNsD7hke7yH-85" value="compute best direction" style="text;html=1;align=left;verticalAlign=middle;whiteSpace=wrap;rounded=0;fontSize=15;fontStyle=1" vertex="1" parent="1">
          <mxGeometry x="530" y="840" width="240" height="30" as="geometry" />
        </mxCell>
      </root>
    </mxGraphModel>
  </diagram>
</mxfile>
